<?xml version="1.0" standalone="no"?>
<!DOCTYPE svg PUBLIC "-//W3C//DTD SVG 20010904//EN"
 "http://www.w3.org/TR/2001/REC-SVG-20010904/DTD/svg10.dtd">
<svg version="1.0" xmlns="http://www.w3.org/2000/svg"
 width="494.000000pt" height="440.000000pt" viewBox="0 0 494.000000 440.000000"
 preserveAspectRatio="xMidYMid meet">

<g transform="translate(0.000000,440.000000) scale(0.100000,-0.100000)"
fill="#000000" stroke="none">
<path d="M296 3489 c17 -18 34 -27 43 -24 9 3 12 3 8 -1 -7 -7 45 -44 62 -44
4 0 42 -19 83 -42 42 -24 132 -74 201 -113 70 -38 127 -75 127 -82 0 -6 19
-23 43 -37 36 -22 42 -31 42 -58 0 -25 6 -36 23 -43 12 -5 22 -13 22 -16 0 -4
21 -19 46 -34 45 -27 55 -49 11 -27 -43 22 -98 41 -93 33 3 -4 59 -31 126 -60
66 -29 123 -58 126 -63 3 -5 -11 -1 -32 10 -22 11 -57 25 -79 31 -71 22 -264
113 -262 125 1 6 -4 10 -10 8 -7 -1 -13 2 -13 7 0 5 -11 12 -24 15 -13 3 -32
9 -42 13 -12 4 -15 3 -10 -5 4 -7 3 -12 -3 -12 -17 0 -193 80 -224 102 -24 17
-31 18 -38 7 -8 -13 -10 -12 -13 11 -1 14 -21 13 -21 -1 0 -7 52 -33 115 -59
125 -51 182 -79 162 -80 -7 0 -10 -5 -7 -10 5 -8 11 -7 20 0 15 12 55 -2 55
-19 0 -5 29 -23 65 -40 36 -16 65 -32 65 -34 0 -3 -7 -21 -15 -40 -16 -38 -45
-42 -45 -7 0 13 -14 23 -47 34 -57 20 -63 20 -63 1 0 -19 -18 -19 -39 -1 -9 7
-29 18 -46 24 -16 5 -39 13 -50 17 -17 6 -17 5 -5 -5 12 -9 12 -13 2 -17 -15
-6 41 -34 91 -47 15 -3 27 -13 27 -21 0 -7 9 -17 20 -20 32 -10 12 -26 -23
-20 -28 5 -34 2 -45 -22 -14 -32 -13 -34 63 -63 33 -13 69 -29 80 -35 11 -7
48 -22 83 -35 74 -27 82 -45 15 -37 -38 4 -49 1 -62 -14 -15 -18 -21 -18 -74
-9 -33 6 -66 9 -74 6 -8 -3 -12 -2 -9 3 3 5 -8 11 -25 15 -44 9 -49 8 -49 -8
0 -14 16 -18 125 -31 55 -7 84 -19 72 -31 -4 -4 6 -13 22 -20 28 -12 29 -15
21 -45 -5 -18 -15 -36 -22 -41 -9 -5 -6 -8 9 -8 23 0 176 -28 203 -37 12 -4
11 -7 -5 -20 -17 -13 -43 -14 -162 -9 -135 6 -143 5 -143 -12 0 -17 13 -19
136 -25 97 -4 143 -11 160 -22 26 -17 48 -20 39 -5 -3 6 -1 10 4 10 6 0 11 -4
11 -10 0 -5 25 -10 55 -10 89 0 64 -20 -27 -22 -237 -5 -253 -6 -252 -17 2
-26 5 -28 29 -23 15 2 25 0 25 -7 0 -6 -7 -11 -15 -11 -27 0 -16 -28 18 -45
20 -10 52 -15 87 -14 31 2 53 -1 51 -7 -2 -5 -6 -15 -9 -22 -2 -7 -11 -11 -18
-8 -9 3 -16 -4 -20 -22 -10 -48 -13 -52 -34 -52 -11 0 -20 -5 -20 -11 0 -5 10
-9 23 -7 17 2 23 -3 25 -20 3 -22 5 -22 16 -6 18 23 66 12 66 -16 0 -24 18
-25 121 -9 39 6 73 9 75 6 3 -2 -45 -22 -106 -42 -60 -21 -110 -41 -110 -45 0
-3 6 -14 13 -24 13 -17 19 -16 123 22 60 22 127 45 149 52 22 7 43 18 47 24 4
6 10 7 14 3 4 -4 1 -14 -7 -21 -14 -13 -199 -94 -311 -136 -43 -16 -56 -26
-55 -40 1 -17 6 -16 80 10 43 16 85 26 94 23 11 -4 14 -2 9 5 -4 7 -2 10 7 7
7 -3 30 1 50 10 42 17 61 12 54 -16 -3 -10 0 -20 7 -22 6 -3 -6 -12 -26 -21
-36 -16 -55 -35 -22 -22 11 4 15 2 11 -8 -8 -21 19 -28 35 -8 9 11 10 14 1 8
-8 -4 -13 -1 -13 8 0 21 30 20 46 -1 13 -17 13 -17 14 0 0 18 25 24 35 7 3 -5
-40 -32 -96 -60 -55 -28 -99 -53 -96 -56 3 -3 46 15 96 40 98 50 114 54 105
31 -4 -10 0 -15 12 -16 13 0 9 -4 -11 -13 -40 -16 -169 -77 -174 -82 -2 -2 -2
-7 2 -10 3 -3 45 13 94 36 86 41 143 58 143 41 0 -4 -12 -14 -27 -22 -40 -19
-74 -46 -91 -70 l-14 -21 40 21 c43 22 75 19 65 -5 -4 -10 0 -12 13 -8 17 6
17 5 -1 -9 -11 -8 -24 -13 -28 -10 -5 3 -21 -3 -35 -14 -15 -11 -35 -22 -45
-26 -10 -4 -17 -13 -14 -20 5 -13 48 -12 57 2 7 11 152 92 157 88 13 -13 -18
-37 -98 -77 -50 -24 -86 -46 -80 -48 6 -2 43 14 81 37 39 22 70 37 70 32 0 -4
-16 -22 -35 -41 -19 -19 -35 -37 -35 -41 0 -4 15 -9 33 -12 24 -4 36 0 50 15
10 12 20 19 22 16 2 -2 -27 -35 -65 -73 -39 -38 -70 -67 -70 -63 0 4 6 13 13
20 6 8 25 28 41 46 17 18 26 32 20 32 -11 0 -75 -76 -78 -93 -3 -22 -17 -37
-28 -31 -7 5 -8 2 -4 -5 5 -8 -8 -27 -33 -52 -23 -21 -39 -39 -37 -39 5 0 60
36 136 87 60 41 132 108 141 131 7 19 13 22 21 14 18 -18 30 -14 19 6 -8 15
-4 23 20 41 38 28 46 22 18 -13 -12 -15 -19 -29 -16 -32 3 -3 -7 -18 -21 -34
-15 -15 -35 -39 -45 -51 -10 -13 -29 -37 -43 -54 -13 -16 -29 -46 -34 -65 -5
-19 -23 -57 -40 -83 -16 -26 -26 -47 -21 -47 12 0 68 63 156 179 43 55 81 98
85 96 9 -5 -16 -85 -31 -99 -16 -17 -10 -28 13 -21 17 6 20 4 15 -9 -4 -11 -3
-15 4 -11 6 4 8 13 5 20 -2 7 2 22 10 34 8 12 17 31 19 43 8 38 22 44 59 24
33 -18 34 -18 20 -54 -27 -76 -47 -153 -41 -159 4 -3 16 2 26 11 19 18 20 17
14 -41 -3 -32 -11 -69 -16 -83 -6 -14 -12 -36 -13 -50 -2 -14 -6 -36 -9 -50
l-6 -25 21 25 c25 31 88 154 124 240 15 36 36 76 46 90 l20 25 0 -27 c0 -15
-5 -30 -10 -33 -6 -3 -10 -11 -10 -16 0 -6 5 -7 11 -4 7 5 8 -5 4 -32 -4 -21
-8 -51 -11 -68 l-5 -30 31 35 c16 19 30 41 30 50 0 8 9 33 20 55 l19 40 -5
-40 c-3 -22 -10 -55 -16 -73 -9 -31 -18 -172 -11 -172 9 0 26 65 44 165 21
116 39 188 46 181 3 -2 -2 -40 -10 -83 -17 -93 -19 -143 -7 -143 5 0 12 27 16
60 9 79 24 77 24 -2 1 -60 1 -62 15 -38 21 37 55 152 55 188 0 25 3 30 17 25
11 -4 14 -3 9 5 -4 7 -2 12 4 12 8 0 9 -45 4 -155 -4 -85 -5 -155 -2 -155 3 0
14 43 24 96 18 94 18 96 30 63 l11 -34 7 40 c4 22 10 51 13 65 5 23 6 24 13 5
l9 -20 1 20 c2 44 18 -12 25 -90 9 -92 23 -79 24 23 1 47 4 62 16 62 7 0 18
-7 23 -16 8 -15 10 -15 15 0 4 10 18 16 42 16 29 0 35 -4 36 -22 l0 -23 11 23
c6 12 17 22 25 22 7 0 13 -10 14 -22 0 -13 2 -34 3 -48 1 -14 3 -43 5 -65 2
-37 3 -38 12 -16 5 13 11 49 13 78 4 54 15 84 17 47 1 -11 4 -7 9 11 8 34 13
25 27 -45 l10 -45 10 35 c12 40 12 40 34 -75 27 -141 32 -87 14 141 -5 55 -3
62 12 60 11 0 21 -12 25 -31 16 -70 29 -117 45 -157 14 -35 18 -38 24 -22 4
10 5 35 2 55 -3 20 -1 45 5 55 7 13 11 3 17 -47 4 -35 11 -71 16 -79 11 -18 4
115 -9 178 -5 23 -6 42 -2 42 8 0 11 -12 45 -185 12 -66 28 -131 34 -145 17
-41 7 133 -13 209 -23 87 -12 90 14 3 13 -41 31 -79 47 -93 l25 -24 -7 50 c-4
28 -9 59 -11 70 -5 20 -5 20 10 1 9 -11 16 -24 16 -30 0 -5 2 -7 5 -4 3 3 -8
40 -24 82 -16 42 -28 76 -27 76 10 0 80 -130 111 -205 45 -109 75 -162 115
-200 l30 -29 -20 42 c-11 23 -17 48 -13 58 4 11 2 15 -4 11 -6 -4 -10 -1 -10
6 1 6 -4 30 -10 52 -6 22 -15 59 -21 82 l-9 42 28 -19 c38 -28 40 -26 24 21
-27 75 -17 88 18 24 66 -122 100 -172 133 -195 46 -31 52 -21 11 21 -18 19
-64 91 -101 162 -52 96 -72 124 -81 117 -9 -8 -15 -6 -19 7 -7 17 26 52 49 53
17 0 47 -73 34 -81 -8 -5 -8 -8 0 -13 6 -4 11 -2 11 4 0 6 5 8 11 5 6 -4 8
-12 6 -19 -3 -6 7 -11 22 -12 l27 -1 -23 45 c-24 47 -29 72 -14 72 4 0 43 -46
87 -102 83 -109 181 -218 196 -218 7 0 -34 62 -71 107 -6 6 -24 41 -42 78 -17
37 -44 79 -59 95 -15 16 -25 31 -22 34 3 3 0 6 -6 6 -6 0 -14 9 -17 21 -4 11
-9 18 -13 15 -3 -4 -16 15 -28 41 -13 26 -22 48 -21 50 2 1 16 -8 32 -21 25
-20 28 -26 16 -40 -15 -18 -1 -22 17 -4 8 8 14 5 21 -14 5 -13 31 -43 58 -65
59 -49 233 -166 233 -157 0 9 -59 82 -134 164 -58 64 -58 64 -33 73 l25 8 -41
39 c-23 21 -40 41 -37 43 3 3 36 -13 73 -34 73 -42 98 -49 76 -23 -11 13 -9
14 13 9 18 -5 27 -2 31 9 5 12 -8 23 -46 43 -29 15 -57 26 -64 25 -6 -2 -14 2
-18 8 -3 6 0 7 9 4 9 -3 16 -2 16 4 0 6 -16 16 -35 22 -38 13 -58 32 -23 22
15 -4 19 -2 13 8 -5 8 -3 11 6 8 8 -3 14 -10 14 -16 0 -23 16 -24 36 -3 25 26
22 31 -18 34 -19 1 -30 8 -30 19 -2 26 37 17 140 -31 90 -42 107 -47 107 -33
0 4 -25 18 -55 31 -52 22 -54 25 -36 38 18 12 25 11 62 -7 22 -12 43 -19 46
-16 3 2 -41 28 -96 56 -94 47 -118 70 -71 70 10 0 21 6 23 13 4 10 6 10 6 0 1
-7 10 -13 20 -13 10 0 22 -7 25 -16 4 -9 2 -13 -5 -8 -7 4 -10 1 -7 -7 7 -21
33 -17 33 6 0 11 -11 28 -25 37 -14 10 -20 18 -14 18 7 0 11 7 10 16 0 9 10
23 24 32 13 10 21 12 17 6 -4 -8 8 -18 33 -28 47 -19 53 -20 45 -6 -4 6 18 1
47 -11 117 -47 126 -49 132 -32 8 21 9 19 -21 31 -217 80 -363 146 -363 162 0
12 13 13 25 1 6 -5 77 -33 159 -61 121 -43 150 -50 157 -39 18 29 6 37 -103
78 -83 31 -102 40 -70 36 149 -19 156 -19 167 6 13 30 41 36 66 13 18 -16 19
-16 19 4 0 15 6 22 19 22 31 0 34 18 4 22 -23 2 -29 8 -31 36 -2 18 -9 32 -16
32 -7 0 -21 9 -31 20 -18 20 -17 20 48 20 36 0 69 5 72 10 3 6 15 10 26 10 12
0 19 7 19 20 0 11 -7 20 -15 20 -8 0 -15 5 -15 11 0 6 12 9 27 7 20 -2 29 2
31 15 3 15 -5 17 -60 18 -35 1 -72 3 -83 4 -11 1 -59 2 -107 3 -95 2 -125 22
-34 22 30 0 58 5 61 10 3 6 11 10 16 10 6 0 7 -4 4 -10 -8 -14 -3 -13 33 6 22
10 73 17 159 21 126 5 151 11 139 32 -4 6 -53 8 -139 4 -126 -5 -202 5 -183
25 4 4 60 17 124 30 127 24 124 24 166 41 23 9 27 16 22 34 -3 12 -6 25 -6 30
0 12 -54 7 -73 -7 -13 -10 -15 -21 -11 -45 7 -36 -10 -44 -20 -8 -11 42 -7 56
20 63 15 4 23 12 20 20 -3 7 3 15 12 19 15 4 150 24 175 25 4 0 7 7 7 16 0 13
-7 15 -32 10 -18 -4 -34 -11 -36 -16 -2 -5 -9 -7 -17 -4 -8 3 -40 0 -72 -6
-54 -12 -58 -11 -71 9 -12 17 -21 19 -57 14 -70 -9 -59 11 23 42 42 16 79 32
82 36 3 3 33 17 68 29 34 13 65 26 67 31 3 4 0 19 -7 34 -10 22 -17 26 -40 21
-32 -6 -50 13 -20 21 12 3 18 11 15 19 -3 8 5 16 24 20 53 13 98 39 99 57 2
21 5 22 -63 -10 -69 -32 -94 -36 -86 -15 5 11 1 13 -18 7 -67 -19 -89 -30 -85
-41 6 -16 -22 -40 -33 -28 -5 5 -13 24 -19 42 l-11 33 52 23 c29 13 60 26 70
29 9 4 17 13 17 21 0 20 40 32 51 15 6 -11 11 -11 21 -1 9 9 9 12 -2 12 -9 0
-10 3 -5 9 11 10 184 85 223 96 12 3 22 13 22 21 0 8 5 14 11 14 5 0 7 -6 3
-12 -5 -10 -4 -10 6 -1 8 7 10 16 6 20 -4 4 -38 -9 -77 -30 -57 -32 -203 -97
-215 -97 -2 0 -4 6 -4 14 0 11 -12 8 -47 -11 -27 -14 -49 -25 -50 -24 -2 1 -3
-2 -3 -6 0 -5 -26 -21 -58 -37 -67 -34 -315 -137 -319 -132 -3 3 131 67 223
106 26 11 44 23 40 27 -3 4 -12 1 -18 -5 -7 -7 -19 -12 -28 -12 -8 0 -28 -7
-44 -15 -33 -18 -36 -18 -36 -6 0 5 8 12 19 16 10 3 30 16 44 28 13 12 33 27
43 33 12 8 19 22 18 41 -1 25 5 33 42 53 23 13 45 31 47 40 4 15 340 208 440
253 21 9 35 22 32 27 -3 5 0 7 9 4 14 -5 56 28 56 45 0 24 -76 -5 -119 -45
-14 -13 -30 -24 -35 -24 -5 0 -79 -39 -165 -87 -86 -47 -175 -97 -198 -110
-23 -12 -49 -20 -57 -17 -16 6 -82 -19 -88 -34 -3 -8 -98 -64 -218 -130 -100
-54 -304 -174 -343 -200 -21 -14 -48 -27 -60 -28 -12 -1 -25 -3 -30 -3 -4 -1
-6 -6 -5 -11 2 -6 -75 -56 -171 -113 -96 -56 -179 -110 -185 -120 -9 -14 -6
-21 15 -40 15 -12 35 -34 44 -49 10 -16 26 -28 36 -28 11 0 19 -4 19 -10 0 -5
-1 -10 -2 -10 -2 0 -41 -7 -88 -15 -47 -8 -86 -15 -88 -15 -2 0 0 -6 5 -12 4
-7 10 -40 13 -73 4 -53 3 -61 -12 -61 -10 0 -18 4 -18 8 0 4 4 8 8 8 9 0 9 41
-1 57 -4 5 -9 28 -11 49 -3 21 -10 40 -16 42 -5 2 -10 10 -10 18 0 19 -6 18
-44 -11 -29 -22 -32 -22 -32 -6 0 10 5 17 11 15 6 -3 21 4 33 15 l23 19 -36
37 c-23 25 -41 36 -54 32 -15 -3 -17 0 -13 16 4 16 2 19 -12 14 -10 -4 -24 -7
-32 -7 -9 0 -12 -5 -8 -12 4 -6 -1 -17 -10 -24 -11 -8 -13 -14 -7 -19 20 -12
11 -26 -11 -20 -22 6 -22 5 -4 -9 15 -12 16 -18 7 -29 -6 -8 -9 -22 -5 -30 9
-23 -19 -47 -55 -47 -18 0 -31 -5 -31 -12 0 -7 -5 -5 -11 5 -13 22 -51 22
-140 0 -69 -16 -86 -35 -37 -41 15 -2 28 -11 31 -22 3 -12 0 -17 -9 -13 -9 3
-12 -4 -9 -27 3 -19 -3 -43 -15 -62 -10 -17 -17 -35 -14 -40 3 -4 -20 -8 -50
-8 -33 0 -56 4 -56 11 0 5 -5 7 -10 4 -6 -4 -8 -11 -5 -16 4 -5 -1 -9 -11 -9
-12 0 -14 3 -6 13 12 14 -3 61 -17 53 -11 -7 -35 60 -26 74 3 6 0 7 -9 4 -9
-3 -16 -1 -16 5 0 19 -39 12 -51 -10 -15 -29 -3 -93 17 -85 10 4 14 -2 14 -21
0 -22 -2 -24 -15 -13 -20 16 -21 14 -27 -42 l-5 -47 28 22 c16 11 29 28 30 36
0 12 2 12 6 3 4 -10 10 -9 26 5 11 10 17 12 13 6 -5 -9 2 -13 24 -13 20 0 29
-4 25 -11 -4 -6 -9 -8 -13 -5 -3 3 -10 0 -16 -8 -10 -13 -100 -47 -121 -45 -5
0 -13 -8 -17 -18 -4 -10 -5 12 -1 49 5 58 3 70 -16 97 -24 33 -43 32 -58 -2
-22 -47 -30 139 -8 194 5 13 -3 18 -35 23 -85 13 -140 28 -140 37 0 5 9 9 20
9 11 0 20 5 20 10 0 6 19 31 42 56 25 27 38 48 32 54 -5 5 -90 57 -189 115
-99 59 -179 111 -178 116 2 5 -7 9 -19 9 -11 0 -55 22 -97 49 -42 26 -112 68
-156 91 -44 23 -86 50 -93 58 -6 9 -12 13 -12 9 0 -4 -15 2 -32 12 -18 10 -76
42 -128 71 -52 29 -104 61 -115 70 -27 22 -81 43 -94 36 -5 -4 -31 6 -58 20
-26 15 -115 65 -198 112 -82 46 -162 85 -177 86 -14 0 -24 5 -21 9 13 21 -47
58 -100 63 l-29 2 28 -29z m653 -335 c271 -150 358 -204 325 -204 -8 0 -387
219 -398 231 -20 19 9 8 73 -27z m3111 22 c-27 -25 -390 -229 -397 -222 -9 8
-17 2 157 101 85 48 173 98 195 111 45 26 67 31 45 10z m-2885 -206 c3 -5 2
-10 -4 -10 -5 0 -13 5 -16 10 -3 6 -2 10 4 10 5 0 13 -4 16 -10z m2610 0 c-3
-5 -11 -10 -16 -10 -6 0 -7 5 -4 10 3 6 11 10 16 10 6 0 7 -4 4 -10z m-2312
-112 c33 -36 34 -41 2 -26 -14 6 -25 15 -25 20 0 4 -4 8 -9 8 -6 0 -22 11 -37
25 -14 13 -30 22 -35 19 -5 -3 -9 0 -9 6 0 6 -5 8 -10 5 -6 -4 -9 -2 -8 4 2 5
-6 17 -17 26 -11 9 12 0 50 -20 39 -20 82 -50 98 -67z m2152 86 c-11 -8 -19
-19 -18 -24 2 -5 -7 -12 -20 -16 -12 -3 -31 -14 -42 -24 -11 -10 -42 -30 -70
-45 l-50 -26 44 45 c24 24 69 58 100 75 60 33 89 40 56 15z m80 -4 c3 -5 1
-10 -4 -10 -6 0 -11 5 -11 10 0 6 2 10 4 10 3 0 8 -4 11 -10z m-2805 -19 c0
-5 3 -24 7 -42 6 -32 5 -33 -10 -17 -9 9 -22 18 -28 20 -9 3 -8 10 2 26 14 22
29 29 29 13z m244 -105 c22 -9 37 -18 34 -21 -2 -3 -55 13 -116 35 -61 22
-118 37 -127 34 -9 -4 -15 -1 -15 7 0 8 -3 24 -7 37 -5 22 1 20 93 -26 55 -27
117 -57 138 -66z m294 18 c21 -14 21 -17 8 -36 -9 -12 -22 -23 -30 -24 -10 -1
-128 85 -165 122 -2 2 2 10 8 18 10 12 23 8 84 -26 40 -22 82 -47 95 -54z
m2246 79 c4 -9 1 -22 -6 -28 -78 -69 -138 -115 -151 -115 -8 0 -22 11 -31 24
-15 24 -15 24 77 79 51 30 95 55 98 56 4 1 10 -7 13 -16z m343 -18 c-7 -24
-15 -34 -24 -30 -8 2 -69 -15 -135 -40 -67 -25 -124 -45 -127 -44 -7 0 281
148 291 148 3 1 1 -15 -5 -34z m53 1 c0 -6 -12 -19 -25 -29 -29 -20 -33 -9
-15 38 9 23 13 25 25 15 8 -7 15 -18 15 -24z m-3300 9 c8 -2 17 -4 20 -4 2 -1
-2 -7 -8 -13 -10 -10 -14 -10 -21 0 -4 7 -17 14 -29 15 -11 0 -18 5 -15 10 3
4 12 5 22 2 9 -4 23 -8 31 -10z m3425 5 c-3 -5 -13 -10 -21 -10 -8 0 -14 -7
-14 -16 0 -8 -4 -12 -10 -9 -11 7 -14 38 -2 32 4 -3 16 -1 27 4 27 10 27 10
20 -1z m-2919 -64 c8 -21 -45 -96 -62 -89 -19 7 -18 9 11 60 27 45 42 53 51
29z m2419 -23 c29 -43 31 -58 10 -67 -17 -6 -71 77 -60 94 11 18 24 11 50 -27z
m-2825 19 c0 -5 -7 -9 -15 -9 -8 0 -15 4 -15 9 0 4 7 8 15 8 8 0 15 -4 15 -8z
m3210 0 c0 -5 -7 -9 -15 -9 -8 0 -15 4 -15 9 0 4 7 8 15 8 8 0 15 -4 15 -8z
m-3273 -13 c15 -6 35 -12 43 -14 8 -2 48 -15 89 -29 41 -14 84 -26 95 -26 12
-1 39 -8 61 -16 22 -8 47 -16 55 -18 21 -4 25 -35 5 -42 -9 -4 -35 -1 -58 6
-23 8 -48 12 -56 11 -8 -1 -10 2 -6 9 5 9 1 10 -14 5 -15 -4 -21 -2 -21 8 0
17 -73 43 -90 32 -9 -5 -11 -4 -6 3 4 8 -19 24 -66 46 -71 34 -88 47 -31 25z
m153 -2 c0 -4 5 -5 10 -2 6 3 10 1 10 -5 0 -6 5 -8 10 -5 6 3 10 1 10 -5 0 -8
-7 -9 -17 -5 -18 7 -40 13 -55 14 -18 2 -6 17 12 17 11 0 20 -4 20 -9z m3044
4 c-16 -16 -54 -23 -54 -11 0 6 5 8 10 5 6 -3 10 -2 10 2 0 5 10 9 21 10 12 1
18 -2 13 -6z m132 -6 c-11 -8 -27 -15 -35 -15 -13 1 -12 4 3 15 11 8 27 15 35
15 13 -1 12 -4 -3 -15z m-2818 -8 c9 -10 5 -23 -15 -53 -34 -51 -32 -49 -44
-37 -7 7 -3 24 12 57 25 49 30 53 47 33z m2335 -32 l26 -45 -43 -29 -42 -29
-23 40 c-22 38 -22 41 -5 59 17 19 18 18 42 -22 13 -22 26 -38 29 -35 3 3 -4
22 -16 42 -21 35 -22 64 -2 64 5 0 21 -20 34 -45z m637 38 c0 -13 -114 -53
-123 -44 -5 5 16 17 50 29 67 23 73 25 73 15z m-3577 -19 c26 -9 47 -20 47
-26 0 -11 -27 -4 -85 22 -50 23 -24 25 38 4z m3227 6 c0 -5 -4 -10 -10 -10 -5
0 -10 5 -10 10 0 6 5 10 10 10 6 0 10 -4 10 -10z m135 0 c3 -5 -11 -16 -32
-25 -30 -13 -35 -18 -23 -26 12 -8 10 -9 -7 -4 -25 7 -93 -19 -93 -36 0 -6 -7
-9 -15 -5 -8 3 -15 1 -15 -5 0 -5 -6 -9 -12 -8 -16 3 -68 -18 -68 -27 0 -3 13
-4 28 -2 26 4 29 1 29 -24 0 -26 -12 -34 -41 -29 -5 1 -22 -3 -39 -8 -26 -10
-33 -8 -54 15 -27 29 -23 44 13 44 22 0 23 2 13 21 -6 12 -7 25 -2 29 13 12
104 40 132 41 19 0 160 46 178 58 1 0 5 -3 8 -9z m-3005 -25 c27 -15 20 -19
-17 -9 -13 4 -23 10 -23 15 0 12 11 11 40 -6z m410 -6 c0 -5 -9 -9 -20 -9 -19
0 -26 11 -14 23 8 8 34 -3 34 -14z m2000 9 c0 -20 -58 -50 -66 -35 -4 7 -4 9
1 5 4 -4 16 4 27 17 21 27 38 32 38 13z m408 -3 c-3 -3 -14 -7 -24 -9 -11 -3
-28 -8 -39 -12 -17 -7 -18 -6 -5 8 8 9 17 15 20 13 3 -1 14 1 25 5 20 8 33 5
23 -5z m-2529 -9 c10 -11 9 -21 -3 -45 -20 -38 -33 -46 -51 -31 -13 11 -12 18
7 51 24 43 30 46 47 25z m2681 -46 c0 -5 -5 -10 -11 -10 -5 0 -7 5 -4 10 3 6
8 10 11 10 2 0 4 -4 4 -10z m-3115 -10 c3 -5 1 -10 -4 -10 -6 0 -11 5 -11 10
0 6 2 10 4 10 3 0 8 -4 11 -10z m290 0 c3 -5 2 -10 -4 -10 -5 0 -13 5 -16 10
-3 6 -2 10 4 10 5 0 13 -4 16 -10z m280 -18 c-8 -8 -25 10 -19 20 4 6 9 5 15
-3 4 -7 6 -15 4 -17z m141 -8 c36 -20 63 -38 61 -40 -6 -6 -157 60 -157 69 0
16 35 5 96 -29z m1744 29 c0 -9 -151 -76 -157 -69 -2 2 24 20 59 39 60 35 98
46 98 30z m70 -7 c0 -17 -14 -29 -23 -20 -8 8 3 34 14 34 5 0 9 -6 9 -14z
m285 4 c-3 -5 -10 -10 -16 -10 -5 0 -9 5 -9 10 0 6 7 10 16 10 8 0 12 -4 9
-10z m185 -40 c-20 -13 -30 -12 -30 1 0 5 4 8 9 4 5 -3 13 0 16 6 4 5 10 8 13
4 4 -3 0 -10 -8 -15z m-2885 0 c3 -5 1 -10 -4 -10 -6 0 -11 5 -11 10 0 6 2 10
4 10 3 0 8 -4 11 -10z m169 -20 c4 -5 -3 -20 -17 -35 -20 -23 -28 -25 -45 -16
-11 6 -35 11 -53 11 -26 0 -31 3 -26 20 3 11 1 20 -4 20 -5 0 -9 4 -9 8 0 10
142 3 154 -8z m2791 -57 c-9 -8 -18 -13 -21 -10 -8 8 19 36 29 30 4 -2 0 -11
-8 -20z m-3041 -9 c3 -8 2 -12 -4 -9 -6 3 -10 10 -10 16 0 14 7 11 14 -7z
m344 -21 c1 -31 -1 -34 -9 -20 -8 14 -5 57 5 57 2 0 3 -17 4 -37z m2348 -25
c-20 -14 -24 -9 -23 26 l1 35 16 -27 c12 -19 14 -29 6 -34z m-83 27 c0 -6 -7
-11 -16 -13 -12 -3 -15 1 -11 13 7 17 25 17 27 0z m-2178 -13 c-3 -3 -11 0
-18 7 -9 10 -8 11 6 5 10 -3 15 -9 12 -12z m-189 -29 c-10 -10 -19 5 -10 18 6
11 8 11 12 0 2 -7 1 -15 -2 -18z m2554 7 c0 -5 -7 -10 -15 -10 -8 0 -15 5 -15
10 0 6 7 10 15 10 8 0 15 -4 15 -10z m-2483 -23 c24 -18 2 -27 -28 -12 -16 9
-27 20 -24 25 6 10 32 3 52 -13z m2447 6 c3 -10 9 -23 12 -30 3 -6 -5 -17 -17
-23 -17 -10 -20 -9 -14 1 6 9 3 11 -11 6 -14 -5 -12 -2 6 13 26 21 12 27 -21
10 -27 -15 -25 5 3 24 29 20 34 20 42 -1z m314 12 c-9 -9 -237 -52 -243 -46
-4 3 45 15 107 27 121 24 144 27 136 19z m-2973 -24 c50 -10 79 -19 65 -19
-14 -1 -65 7 -115 17 -49 10 -79 19 -65 19 14 1 66 -7 115 -17z m130 -1 c-3
-5 -11 -10 -16 -10 -6 0 -7 5 -4 10 3 6 11 10 16 10 6 0 7 -4 4 -10z m2575 -6
c0 -8 -4 -12 -10 -9 -5 3 -10 10 -10 16 0 5 5 9 10 9 6 0 10 -7 10 -16z
m-2520 -17 c0 -1 -11 -2 -24 -2 -14 0 -22 5 -19 12 4 9 10 10 24 2 10 -5 19
-11 19 -12z m-167 -14 c-7 -2 -19 -2 -25 0 -7 3 -2 5 12 5 14 0 19 -2 13 -5z
m87 -3 c0 -5 -5 -10 -11 -10 -5 0 -7 5 -4 10 3 6 8 10 11 10 2 0 4 -4 4 -10z
m2625 0 c3 -5 2 -10 -4 -10 -5 0 -13 5 -16 10 -3 6 -2 10 4 10 5 0 13 -4 16
-10z m88 3 c-7 -2 -19 -2 -25 0 -7 3 -2 5 12 5 14 0 19 -2 13 -5z m-123 -23
c0 -4 -6 -10 -14 -13 -12 -5 -14 2 -7 31 2 7 21 -10 21 -18z m-2576 -28 c2 -4
-4 -8 -14 -8 -10 0 -16 4 -13 9 3 5 -5 6 -18 2 -21 -7 -22 -6 -10 8 13 16 42
10 55 -11z m2633 12 c4 -12 -56 -36 -69 -28 -11 7 42 45 56 41 6 -2 11 -8 13
-13z m-2187 -10 c0 -2 -9 -4 -20 -4 -11 0 -20 4 -20 9 0 5 9 7 20 4 11 -3 20
-7 20 -9z m1725 6 c4 -6 -6 -10 -22 -9 -25 0 -26 1 -8 9 11 5 21 9 22 9 1 1 5
-3 8 -9z m-2025 -16 c0 -2 -12 -4 -26 -4 -14 0 -23 4 -20 9 6 8 46 4 46 -5z
m2330 7 c0 -12 -39 -21 -45 -11 -3 5 3 11 12 13 29 8 33 7 33 -2z m-2290 -58
c-11 -17 -11 -17 -6 0 3 10 6 24 7 30 0 9 2 9 5 0 3 -7 0 -20 -6 -30z m2209
15 c5 -13 11 -34 15 -48 5 -19 2 -16 -13 10 -20 34 -26 60 -16 60 3 0 9 -10
14 -22z m-2170 -5 c-2 -10 2 -28 9 -40 9 -16 9 -23 2 -23 -6 0 -8 -4 -5 -10 7
-11 -6 -13 -28 -4 -12 4 -12 11 2 50 17 46 24 56 20 27z m2148 -31 c11 -33 11
-38 -5 -50 -14 -11 -19 -10 -29 4 -11 14 -10 22 2 40 8 13 12 31 8 41 -3 10
-2 15 2 10 5 -4 15 -24 22 -45z m-1052 -21 c3 -5 2 -12 -3 -15 -5 -3 -9 1 -9
9 0 17 3 19 12 6z m915 -38 c0 -19 -5 -23 -30 -23 -16 0 -30 5 -30 11 0 6 6 9
14 6 9 -4 12 0 9 12 -3 12 2 17 16 17 15 0 21 -7 21 -23z m-1860 13 c0 -3 -4
-8 -10 -11 -5 -3 -10 -1 -10 4 0 6 5 11 10 11 6 0 10 -2 10 -4z m20 -26 c0 -5
-4 -10 -10 -10 -5 0 -10 5 -10 10 0 6 5 10 10 10 6 0 10 -4 10 -10z m-591 -15
c29 5 60 -9 48 -22 -5 -4 -12 -1 -18 7 -7 12 -11 12 -17 2 -8 -12 -54 -11 -84
2 -30 14 -20 25 14 15 17 -5 43 -7 57 -4z m3055 -1 c3 -8 2 -12 -4 -9 -6 3
-15 3 -22 -1 -21 -13 -78 -15 -78 -3 0 8 -4 8 -15 -1 -10 -9 -15 -9 -15 -1 0
12 3 12 68 13 23 0 45 4 48 9 7 13 11 11 18 -7z m-1143 -17 c-10 -9 -11 -8 -5
6 3 10 9 15 12 12 3 -3 0 -11 -7 -18z m-1821 9 c0 -3 -4 -8 -10 -11 -5 -3 -10
-1 -10 4 0 6 5 11 10 11 6 0 10 -2 10 -4z m2510 -11 c-7 -9 -15 -13 -19 -10
-3 3 1 10 9 15 21 14 24 12 10 -5z m-1069 -12 c12 -14 12 -15 0 -9 -8 5 -17 3
-22 -5 -7 -11 -9 -11 -9 2 0 13 8 29 15 29 2 0 9 -8 16 -17z m35 -59 c-11 -8
-23 -14 -28 -14 -12 0 -9 29 5 45 10 11 14 11 27 -1 13 -14 13 -17 -4 -30z
m-1190 7 c-3 -4 -47 -14 -97 -21 -68 -10 -87 -15 -71 -21 48 -18 14 -37 -98
-54 -25 -4 -53 -9 -63 -11 -26 -4 -32 22 -10 45 13 14 47 24 123 36 58 9 125
20 150 25 63 11 72 11 66 1z m2372 -17 c118 -19 161 -31 175 -45 12 -13 14
-19 5 -19 -9 0 -9 -3 2 -11 11 -8 -1 -9 -45 -5 -96 10 -129 17 -144 31 -13 12
-11 15 9 23 18 7 4 11 -69 22 -50 7 -94 17 -97 21 -7 12 -14 13 164 -17z
m-291 -6 c-3 -8 -6 -5 -6 6 -1 11 2 17 5 13 3 -3 4 -12 1 -19z m-2099 -27 c3
-10 -1 -12 -17 -8 -12 3 -34 2 -49 -2 -29 -9 -52 -4 -52 9 0 21 111 22 118 1z
m2362 2 c3 -3 -1 -8 -8 -10 -6 -3 -10 -9 -7 -13 3 -5 -7 -3 -22 5 -16 9 -40
13 -55 9 -27 -5 -36 4 -20 20 7 8 103 -1 112 -11z m-2147 0 c-7 -2 -19 -2 -25
0 -7 3 -2 5 12 5 14 0 19 -2 13 -5z m-56 -9 c-3 -3 -12 -4 -19 -1 -8 3 -5 6 6
6 11 1 17 -2 13 -5z m-179 -57 c-7 -15 -21 -27 -30 -27 -10 0 -21 -1 -25 -2
-4 -2 -10 10 -14 25 -7 25 -5 28 22 34 16 3 29 10 29 16 0 6 7 5 15 -4 13 -12
13 -19 3 -42z m1349 47 c-3 -3 -12 -4 -19 -1 -8 3 -5 6 6 6 11 1 17 -2 13 -5z
m60 0 c-3 -3 -12 -4 -19 -1 -8 3 -5 6 6 6 11 1 17 -2 13 -5z m923 -14 c24 0
29 -9 23 -41 -4 -21 -9 -25 -28 -21 -13 2 -32 16 -41 30 -16 24 -16 26 2 39
12 9 20 10 22 3 2 -5 12 -10 22 -10z m297 -17 c-3 -10 -5 -4 -5 12 0 17 2 24
5 18 2 -7 2 -21 0 -30z m-1397 12 c-7 -9 -15 -13 -19 -10 -3 3 1 10 9 15 21
14 24 12 10 -5z m-1573 -17 c-3 -8 -6 -5 -6 6 -1 11 2 17 5 13 3 -3 4 -12 1
-19z m383 5 c-1 -18 -19 -35 -29 -28 -9 5 -9 10 0 21 12 15 29 19 29 7z m250
-3 c-8 -5 -19 -10 -25 -10 -5 0 -3 5 5 10 8 5 20 10 25 10 6 0 3 -5 -5 -10z
m1726 -6 c18 -14 18 -14 -6 -3 -31 14 -36 19 -24 19 6 0 19 -7 30 -16z m252 4
c16 -16 15 -28 -3 -28 -8 0 -15 2 -15 4 0 2 -3 11 -6 20 -7 19 7 21 24 4z
m160 -16 c24 0 46 -2 49 -6 4 -3 -19 -6 -50 -6 -52 0 -75 9 -60 24 4 3 9 2 13
-3 3 -6 25 -10 48 -9z m-2514 -4 c-3 -5 -29 -8 -57 -7 -31 0 -45 3 -34 7 24
10 97 9 91 0z m322 3 c-8 -12 -46 -21 -46 -11 0 5 8 11 18 13 29 8 33 7 28 -2z
m1845 -1 c5 0 9 -4 9 -9 0 -12 -38 -2 -47 12 -4 7 0 8 11 4 10 -4 22 -7 27 -7z
m-2331 -20 c0 -5 -5 -10 -11 -10 -5 0 -7 5 -4 10 3 6 8 10 11 10 2 0 4 -4 4
-10z m500 -5 c-14 -8 -29 -14 -35 -14 -5 0 1 6 15 14 14 8 30 14 35 14 6 0 -1
-6 -15 -14z m1815 -6 c15 -14 -7 -10 -35 7 l-25 15 25 -7 c14 -3 29 -10 35
-15z m480 11 c3 -5 1 -10 -4 -10 -6 0 -11 5 -11 10 0 6 2 10 4 10 3 0 8 -4 11
-10z m-1395 -65 c0 -50 -2 -56 -30 -70 -35 -18 -44 -19 -33 -2 4 6 8 17 8 22
1 6 5 24 9 40 23 90 46 95 46 10z m858 49 c6 3 14 1 17 -5 5 -7 -1 -9 -16 -7
-12 1 -24 10 -26 18 -4 12 -3 13 5 1 5 -7 14 -11 20 -7z m-2018 -4 c-8 -5 -19
-10 -25 -10 -5 0 -3 5 5 10 8 5 20 10 25 10 6 0 3 -5 -5 -10z m2330 0 c13 -8
13 -10 -2 -10 -9 0 -20 5 -23 10 -8 13 5 13 25 0z m-2380 -14 c0 -2 -7 -7 -16
-10 -8 -3 -12 -2 -9 4 6 10 25 14 25 6z m2444 -6 c7 0 21 -7 32 -15 16 -12 12
-12 -28 1 -27 9 -48 18 -48 21 0 3 7 2 16 -1 9 -3 21 -6 28 -6z m-2498 -15
c-11 -8 -25 -15 -30 -15 -6 1 0 7 14 15 32 19 40 18 16 0z m2118 -6 c-3 -5
-10 -7 -15 -3 -5 3 -7 10 -3 15 3 5 10 7 15 3 5 -3 7 -10 3 -15z m-1694 7 c0
-2 -7 -6 -15 -10 -8 -3 -15 -1 -15 4 0 6 7 10 15 10 8 0 15 -2 15 -4z m783
-16 c-8 -31 -87 -97 -132 -111 -31 -9 -49 -9 -83 0 -42 12 -65 12 -61 0 1 -3
-9 -12 -23 -19 -21 -12 -26 -11 -39 6 -13 18 -14 18 -8 -4 7 -30 28 -38 51
-21 15 13 16 12 3 -3 -7 -10 -19 -18 -27 -18 -17 0 -50 48 -56 83 -5 26 -3 28
17 23 14 -4 25 -1 28 7 3 9 9 9 26 -1 18 -10 21 -10 21 5 0 14 5 12 23 -9 14
-18 35 -30 57 -33 19 -3 29 -3 23 1 -21 10 -15 24 11 24 13 0 40 7 60 15 28
12 36 12 36 3 1 -11 14 2 61 60 14 17 18 15 12 -8z m-1253 0 c0 -5 -5 -10 -11
-10 -5 0 -7 5 -4 10 3 6 8 10 11 10 2 0 4 -4 4 -10z m497 -12 c-3 -8 -6 -5 -6
6 -1 11 2 17 5 13 3 -3 4 -12 1 -19z m2159 -6 c-7 -7 -46 9 -46 18 0 5 11 4
25 -2 14 -6 23 -13 21 -16z m-2686 8 c0 -5 -8 -10 -17 -10 -15 0 -16 2 -3 10
19 12 20 12 20 0z m2150 6 c0 -3 -4 -8 -10 -11 -5 -3 -10 -1 -10 4 0 6 5 11
10 11 6 0 10 -2 10 -4z m-115 -24 c-3 -3 -11 0 -18 7 -9 10 -8 11 6 5 10 -3
15 -9 12 -12z m-1785 -11 c0 -11 3 -26 6 -34 10 -26 -33 -28 -50 -1 -15 21
-14 24 6 39 29 20 38 19 38 -4z m397 13 c-3 -3 -12 -4 -19 -1 -8 3 -5 6 6 6
11 1 17 -2 13 -5z m1819 -6 c16 -2 11 -23 -10 -47 -27 -30 -54 -13 -48 29 4
27 8 31 26 25 11 -3 26 -7 32 -7z m-1901 -8 c3 -6 -1 -7 -9 -4 -18 7 -21 14
-7 14 6 0 13 -4 16 -10z m1569 -7 c4 -9 2 -21 -3 -26 -6 -6 -9 -2 -8 9 1 12
-4 19 -15 18 -10 -1 -15 2 -12 7 9 15 31 10 38 -8z m-2015 -6 c-14 -10 -192
-77 -196 -74 -5 5 190 85 196 81 2 -2 2 -5 0 -7z m2601 -61 c47 -19 80 -35 74
-36 -16 0 -237 89 -249 102 -10 10 22 -2 175 -66z m-2186 48 c3 -8 2 -12 -4
-9 -6 3 -10 10 -10 16 0 14 7 11 14 -7z m1751 -23 c-3 -6 -11 -11 -17 -11 -6
0 -6 6 2 15 14 17 26 13 15 -4z m-1890 -1 c3 -5 1 -10 -4 -10 -6 0 -11 5 -11
10 0 6 2 10 4 10 3 0 8 -4 11 -10z m-495 -50 c-8 -5 -19 -10 -25 -10 -5 0 -3
5 5 10 8 5 20 10 25 10 6 0 3 -5 -5 -10z m1730 -40 c0 -5 -13 -10 -29 -10 -17
0 -33 5 -36 10 -4 6 8 10 29 10 20 0 36 -4 36 -10z m85 -10 c-10 -11 -21 -18
-23 -15 -3 3 3 12 14 20 27 20 30 18 9 -5z m-1240 0 c-3 -5 -10 -10 -16 -10
-5 0 -9 5 -9 10 0 6 7 10 16 10 8 0 12 -4 9 -10z m1735 0 c0 -5 -4 -10 -9 -10
-6 0 -13 5 -16 10 -3 6 1 10 9 10 9 0 16 -4 16 -10z m-159 -27 c13 -16 12 -17
-3 -4 -17 13 -22 21 -14 21 2 0 10 -8 17 -17z m418 -7 c42 -22 44 -24 24 -35
-17 -9 -30 -7 -65 10 -23 11 -32 18 -19 15 18 -4 21 -2 12 7 -13 13 -15 27 -3
27 4 -1 27 -11 51 -24z m-1129 -25 c0 -11 -4 -22 -8 -25 -12 -7 -52 4 -52 15
0 5 6 6 14 3 7 -3 16 2 19 10 9 22 27 20 27 -3z m-776 -50 c5 -8 -54 -61 -68
-61 -15 0 -3 27 22 47 30 25 38 27 46 14z m661 -35 c-4 -20 -11 -36 -15 -36
-4 0 -3 18 2 40 13 49 22 46 13 -4z m924 18 c32 -27 40 -44 19 -44 -17 1 -68
46 -68 60 0 17 17 12 49 -16z m-1825 4 c-5 -8 0 -9 14 -6 28 8 28 2 1 -13 -17
-9 -23 -8 -30 2 -5 8 -3 17 4 21 17 11 19 10 11 -4z m866 -25 c0 -21 -3 -24
-9 -14 -5 8 -7 20 -4 28 8 21 13 15 13 -14z m1056 0 c1 -10 4 -27 8 -38 7 -18
6 -18 -12 2 -11 12 -23 19 -28 15 -5 -4 0 3 10 16 23 26 22 26 22 5z m-1856 3
c0 -2 -7 -7 -16 -10 -8 -3 -12 -2 -9 4 6 10 25 14 25 6z m920 -26 c0 -20 -5
-30 -15 -30 -16 0 -19 17 -9 44 10 26 24 18 24 -14z m995 12 c-3 -3 -11 0 -18
7 -9 10 -8 11 6 5 10 -3 15 -9 12 -12z m-1875 -12 c-6 -11 -12 -20 -14 -20 -2
0 -2 9 1 20 3 11 9 20 15 20 5 0 4 -9 -2 -20z m1912 -31 c83 -47 83 -47 76
-54 -12 -13 -158 66 -158 85 0 14 1 14 82 -31z m-1220 -11 c11 -38 13 -40 18
-17 l6 24 16 -30 c14 -28 14 -31 -3 -49 -22 -22 -43 -11 -53 30 -4 14 -11 22
-17 18 -7 -4 -7 2 1 16 6 12 9 28 6 36 -3 8 -1 14 4 14 5 0 15 -19 22 -42z
m129 15 c-12 -20 -14 -14 -5 12 4 9 9 14 11 11 3 -2 0 -13 -6 -23z m-191 -18
c0 -14 -2 -25 -4 -25 -2 0 -6 11 -8 25 -3 14 -1 25 3 25 5 0 9 -11 9 -25z
m187 -27 c-3 -8 -6 -5 -6 6 -1 11 2 17 5 13 3 -3 4 -12 1 -19z m-597 -3 c0 -2
-10 -9 -22 -15 -22 -11 -22 -10 -4 4 21 17 26 19 26 11z m1400 -16 l25 -20
-32 16 c-18 8 -33 18 -33 20 0 10 16 4 40 -16z m-813 -21 c-3 -8 -6 -5 -6 6
-1 11 2 17 5 13 3 -3 4 -12 1 -19z m1102 -76 c83 -85 116 -122 110 -122 -3 0
-49 45 -104 100 -54 55 -95 100 -91 100 5 0 43 -35 85 -78z m-1599 48 c-6 -11
-13 -20 -16 -20 -2 0 0 9 6 20 6 11 13 20 16 20 2 0 0 -9 -6 -20z m490 -11 c0
-6 -4 -7 -10 -4 -5 3 -10 11 -10 16 0 6 5 7 10 4 6 -3 10 -11 10 -16z m708 -4
c-3 -3 -9 2 -12 12 -6 14 -5 15 5 6 7 -7 10 -15 7 -18z m-780 -35 c19 -39 16
-53 -6 -27 -12 14 -27 67 -19 67 3 0 14 -18 25 -40z m19 -2 c-3 -7 -5 -2 -5
12 0 14 2 19 5 13 2 -7 2 -19 0 -25z m777 6 c3 -8 2 -12 -4 -9 -6 3 -10 10
-10 16 0 14 7 11 14 -7z m-1241 -9 c-3 -9 -8 -14 -10 -11 -3 3 -2 9 2 15 9 16
15 13 8 -4z m1106 -94 c13 -40 14 -61 3 -61 -4 0 -13 19 -19 43 -7 23 -15 51
-19 62 -6 18 -5 18 8 5 9 -8 20 -30 27 -49z m-942 35 c-3 -8 -11 -32 -18 -55
-11 -36 -29 -56 -29 -33 0 22 33 102 42 102 6 0 8 -6 5 -14z m442 -32 c2 -2
-9 -6 -24 -10 -19 -5 -32 -2 -43 10 -16 16 -15 17 23 10 22 -3 42 -8 44 -10z"/>
<path d="M1320 2710 c0 -5 5 -10 10 -10 6 0 10 5 10 10 0 6 -4 10 -10 10 -5 0
-10 -4 -10 -10z"/>
<path d="M3868 2113 c6 -2 18 -2 25 0 6 3 1 5 -13 5 -14 0 -19 -2 -12 -5z"/>
<path d="M1266 3171 c-3 -4 22 -25 55 -46 44 -27 64 -34 72 -26 13 13 14 12
-51 50 -56 33 -68 36 -76 22z"/>
<path d="M3600 3149 c-68 -39 -66 -37 -53 -50 8 -8 28 -1 72 26 33 21 58 42
55 46 -8 13 -14 11 -74 -22z"/>
<path d="M723 3148 c-25 -33 -25 -38 1 -26 14 6 26 17 26 25 0 16 -15 17 -27
1z"/>
<path d="M4197 3153 c-12 -11 -8 -20 18 -31 23 -11 24 -10 13 13 -11 26 -20
30 -31 18z"/>
<path d="M1428 3035 c-6 -14 -17 -24 -24 -21 -7 3 -20 -6 -28 -19 -18 -27 -26
-19 82 -84 62 -37 62 -37 62 -12 0 25 17 36 35 21 10 -8 17 -6 29 12 22 31 20
45 -8 52 -13 3 -47 22 -76 41 -29 19 -54 35 -56 35 -3 0 -10 -11 -16 -25z m27
-5 c3 -5 1 -10 -4 -10 -6 0 -11 5 -11 10 0 6 2 10 4 10 3 0 8 -4 11 -10z"/>
<path d="M3471 3046 c-16 -19 -99 -66 -117 -66 -18 0 -18 -20 1 -48 13 -18 19
-20 35 -10 21 13 30 9 34 -16 1 -9 6 -17 10 -18 13 -2 86 43 86 52 0 5 6 7 14
4 24 -9 44 40 25 63 -6 6 -16 10 -22 7 -7 -2 -17 6 -22 18 -13 28 -29 33 -44
14z"/>
<path d="M717 2563 c-4 -3 -7 -19 -7 -35 0 -21 5 -28 19 -28 11 0 21 -4 23 -9
6 -17 48 8 48 30 0 35 -60 65 -83 42z"/>
<path d="M2235 2331 c-3 -5 -1 -12 5 -16 5 -3 10 1 10 9 0 18 -6 21 -15 7z"/>
<path d="M880 2066 c0 -9 5 -16 10 -16 6 0 10 4 10 9 0 6 -4 13 -10 16 -5 3
-10 -1 -10 -9z"/>
<path d="M4056 2071 c-4 -7 -5 -15 -2 -18 9 -9 19 4 14 18 -4 11 -6 11 -12 0z"/>
<path d="M1170 1787 c-25 -13 -53 -21 -63 -19 -16 3 -17 1 -7 -17 6 -12 15
-21 21 -21 6 0 7 -5 3 -12 -4 -6 -3 -8 4 -5 5 4 8 16 5 27 -5 19 12 29 19 11
2 -5 19 0 38 10 19 11 26 17 15 13 -51 -17 -56 -13 -15 10 56 31 41 33 -20 3z"/>
<path d="M3750 1786 c25 -14 38 -25 30 -26 -9 0 -20 4 -25 9 -6 4 -23 12 -40
16 -38 9 -31 3 25 -22 38 -16 48 -18 58 -7 10 11 7 16 -15 27 -51 26 -79 28
-33 3z"/>
<path d="M3597 1793 c-4 -3 -7 -11 -7 -17 0 -6 5 -5 12 2 6 6 9 14 7 17 -3 3
-9 2 -12 -2z"/>
<path d="M3812 1746 c-11 -24 -7 -36 10 -36 5 0 6 5 3 10 -3 6 -2 10 2 10 5 0
14 9 21 20 10 17 10 20 -6 20 -10 0 -24 -11 -30 -24z"/>
<path d="M1185 1739 c-22 -11 -32 -17 -22 -14 10 3 24 5 31 5 7 0 21 7 32 15
27 20 7 17 -41 -6z"/>
<path d="M3700 1755 c0 -6 32 -19 70 -29 14 -3 7 3 -15 13 -42 21 -55 24 -55
16z"/>
<path d="M3545 1640 c-3 -5 9 -19 27 -30 40 -24 53 -7 17 21 -28 21 -35 23
-44 9z"/>
<path d="M1737 1297 c-15 -28 -47 -90 -72 -137 -24 -47 -35 -74 -25 -60 11 14
24 30 30 37 5 7 10 15 10 19 0 4 23 45 51 92 30 49 47 88 42 93 -5 5 -20 -13
-36 -44z"/>
<path d="M3266 1257 c3 -10 9 -15 12 -12 3 3 0 11 -7 18 -10 9 -11 8 -5 -6z"/>
<path d="M2601 1214 c0 -11 3 -14 6 -6 3 7 2 16 -1 19 -3 4 -6 -2 -5 -13z"/>
<path d="M3021 1175 c0 -5 6 -21 14 -35 8 -14 14 -20 14 -15 0 6 -6 21 -14 35
-8 14 -14 21 -14 15z"/>
<path d="M3180 910 c14 -11 34 -25 45 -31 14 -7 12 -4 -5 11 -14 11 -34 25
-45 31 -14 7 -12 4 5 -11z"/>
</g>
</svg>
